<svg xmlns="http://www.w3.org/2000/svg" width="16" height="16" viewBox="0 0 16 16"><path fill="none" stroke="#84c2ff" stroke-miterlimit="4.9" stroke-width="1.7" d="m1.7627119 13.627119s1.2881355-6.847458 6.5762712-8.1355935c5.0847459.9491522 5.9661009 8.1355925 5.9661009 8.1355925"/><ellipse cx="1.898" cy="13.492" fill="#e0e0e0" rx="1.268" ry="1.2"/><ellipse cx="14.237" cy="13.492" fill="#e0e0e0" rx="1.268" ry="1.2"/><path fill="none" stroke="#84c2ff" stroke-width=".805" d="m8.2033896 4.6779662h-3.8335021"/><path fill="none" stroke="#84c2ff" stroke-width=".717" d="m11.931789 4.6440679h-3.7283994"/><g fill="#e0e0e0"><ellipse cx="8.271" cy="4.78" rx="1.268" ry="1.2"/><path d="m3.1539157 3.4305762a1.2675855 1.1997888 0 0 0 -1.2675781 1.1992188 1.2675855 1.1997888 0 0 0 1.2675781 1.1992187 1.2675855 1.1997888 0 0 0 1.2675781-1.1992187 1.2675855 1.1997888 0 0 0 -1.2675781-1.1992188zm.00195.4238282a.84677333.80148375 0 0 1 .8476593.8007812.84677333.80148375 0 0 1 -.8476562.8007812.84677333.80148375 0 0 1 -.8476562-.8007812.84677333.80148375 0 0 1 .8476562-.8007812z"/><path d="m13.093969 3.3750567a1.2675855 1.1997888 0 0 0 -1.267578 1.1992188 1.2675855 1.1997888 0 0 0 1.267578 1.1992187 1.2675855 1.1997888 0 0 0 1.267578-1.1992187 1.2675855 1.1997888 0 0 0 -1.267578-1.1992188zm.002.4238282a.84677333.80148375 0 0 1 .847659.8007812.84677333.80148375 0 0 1 -.847656.8007812.84677333.80148375 0 0 1 -.847656-.8007812.84677333.80148375 0 0 1 .847656-.8007812z"/></g></svg>