<svg xmlns="http://www.w3.org/2000/svg" width="16" height="16" viewBox="0 0 16 16"><g transform="translate(0 -1036.4)"><path fill-opacity=".392" d="m5 0a5 5 0 0 0 -5 5 5 5 0 0 0 5 5 5 5 0 0 0 1.0566-.11914l9.9434 6.1191-6.1172-9.9395a5 5 0 0 0 .11719-1.0605 5 5 0 0 0 -5-5z" transform="translate(0 1036.4)"/><path fill="#a5efac" fill-rule="evenodd" d="m5 1a4 4 0 0 0 -4 4 4 4 0 0 0 4 4 4 4 0 0 0 1.1406-.16992l9.8594 7.1699-7.168-9.8555a4 4 0 0 0 .16797-1.1445 4 4 0 0 0 -4-4z" transform="translate(0 1036.4)"/><ellipse cx="3" cy="1039.4" fill="#6e6e6e"/><circle cx="5" cy="1041.4" r="0" fill="#a5efac"/></g></svg>