<svg xmlns="http://www.w3.org/2000/svg" width="16" height="16" viewBox="0 0 16 16"><path fill="#e0e0e0" fill-opacity=".392" d="m7 1v6h-6v8h8v-6h6v-8zm2 2h4v4h-4z"/><path fill="#fff" d="m1 1v2c0 .0000234.446 0 1 0s1 .0000234 1 0v-2c0-.00002341-.446 0-1 0s-1-.00002341-1 0zm12 0v2c0 .0000234.446 0 1 0s1 .0000234 1 0v-2c0-.00002341-.446 0-1 0s-1-.00002341-1 0zm-12 12v2c0 .000023.446 0 1 0s1 .000023 1 0v-2c0-.000023-.446 0-1 0s-1-.000023-1 0zm12 0v2c0 .000023.446 0 1 0s1 .000023 1 0v-2c0-.000023-.446 0-1 0s-1-.000023-1 0z"/></svg>