<svg xmlns="http://www.w3.org/2000/svg" width="16" height="16" viewBox="0 0 16 16"><path fill="#e0e0e0" fill-opacity=".996" d="m11.012 1048.4a1.0001 1.0001 0 0 0 -1.7168-.6973l-.29297.293v-7.1719l.29297.293a1.0001 1.0001 0 0 0 1.7148-.7266 1.0001 1.0001 0 0 0 -.30078-.6875l-2-2a1.0001 1.0001 0 0 0 -1.4141 0l-2 2a1.0001 1.0001 0 1 0 1.4141 1.4141l.29297-.293v7.1719l-.29297-.293a1.0001 1.0001 0 1 0 -1.4141 1.4141l2 2a1.0001 1.0001 0 0 0 1.4141 0l2-2a1.0001 1.0001 0 0 0 .30273-.7168z" transform="translate(0 -1036.4)"/></svg>