<svg xmlns="http://www.w3.org/2000/svg" xmlns:svg="http://www.w3.org/2000/svg" id="svg18" width="16" height="16" version="1.1" viewBox="0 0 16 16"><metadata id="metadata24"/><path id="path4541" d="m 5.0534707,10.652714 q 0,0.729229 -0.4538398,1.253141 -0.4538403,0.516832 -1.0868283,0.516832 H 2.3184864 q -0.6389592,0 -1.1047425,-0.509753 -0.47175502,-0.509751 -0.47175502,-1.26022 V 5.1304021 q 0,-0.7575473 0.47175502,-1.2672998 0.4717549,-0.5097517 1.1047425,-0.5097517 h 1.1943162 q 0.6270165,0 1.0868283,0.516832 0.4538398,0.5168313 0.4538398,1.2602195 z M 3.9726148,10.419078 V 5.3640385 q 0,-0.5734707 -0.3344086,-0.8141867 Q 3.5307175,4.4648927 3.381428,4.471973 H 2.3901454 q -0.2567779,0 -0.4120391,0.2690357 -0.1552611,0.2690357 -0.1552611,0.6230298 v 5.0550395 q 0,0.559311 0.3164938,0.807108 0.1074885,0.08496 0.2508064,0.08496 H 3.381428 q 0.2746925,0 0.4359254,-0.276116 0.1552614,-0.276115 0.1552614,-0.61595 z" style="font-style:normal;font-variant:normal;font-weight:400;font-stretch:normal;font-size:40px;line-height:1.25;font-family:Uroob;-inkscape-font-specification:Uroob;letter-spacing:0;word-spacing:0;fill:red;fill-opacity:1;stroke:none;stroke-width:.33291078"/><path id="path4543" d="M 9.9872948,12.451006 H 8.9445586 L 7.4747449,8.5287488 H 6.6815992 V 12.451006 H 5.6721419 V 3.37459 h 2.739956 q 0.5435541,0 0.9318066,0.4601926 0.3882524,0.4601933 0.3882524,1.1540217 V 7.112771 q 0,1.0053443 -0.6766682,1.3168588 -0.2107668,0.099119 -0.4659043,0.099119 z M 8.7282467,6.808336 V 5.2224407 q 0,-0.4743524 -0.2884169,-0.6867495 -0.088743,-0.070798 -0.2052192,-0.063719 H 6.6815992 v 2.9452329 h 1.7194053 q 0.2828702,-0.00708 0.3161488,-0.389394 0.011093,-0.1132781 0.011093,-0.2194752 z" style="font-style:normal;font-variant:normal;font-weight:400;font-stretch:normal;font-size:40px;line-height:1.25;font-family:Uroob;-inkscape-font-specification:Uroob;letter-spacing:0;word-spacing:0;fill:green;fill-opacity:1;stroke:none;stroke-width:.32084218"/><path id="path4545" d="m 10.201004,3.7285848 q 0,-0.4106342 0.529158,-0.3681546 0.126777,0.014161 0.209458,0.014161 v 0.00708 h 0.115753 l 1.692202,4.9205216 1.697714,-4.9205216 h 0.06063 v -0.00708 h 0.463013 q 0.198434,0 0.297651,0.212397 0.03307,0.063719 0.03307,0.1415978 v 8.694102 h -1.01422 V 6.8224966 L 13.227119,10.050925 H 12.273535 L 11.21522,7.1198527 v 5.3028353 h -1.014218 z" style="font-style:normal;font-variant:normal;font-weight:400;font-stretch:normal;font-size:40px;line-height:1.25;font-family:Uroob;-inkscape-font-specification:Uroob;letter-spacing:0;word-spacing:0;fill:#00f;fill-opacity:1;stroke:none;stroke-width:.31984535"/></svg>