<svg xmlns="http://www.w3.org/2000/svg" width="16" height="16" viewBox="0 0 16 16"><g fill="#e0e0e0"><path fill-rule="evenodd" d="m4.9883 1039.4c-.5469.01-.98717.4511-.98828.998v8c.0001163.7986.89011 1.275 1.5547.8321l6-4c.59362-.3959.59362-1.2682 0-1.6641l-6-4c-.1678-.1111-.3652-.1689-.56641-.166z" transform="matrix(.59321602 0 0 .59321602 -1.220314 -611.14809)"/><path fill-rule="evenodd" d="m4.9883 1039.4c-.5469.01-.98717.4511-.98828.998v8c.0001163.7986.89011 1.275 1.5547.8321l6-4c.59362-.3959.59362-1.2682 0-1.6641l-6-4c-.1678-.1111-.3652-.1689-.56641-.166z" transform="matrix(.59321602 0 0 .59321602 7.525472 -610.94451)"/><rect width="9.559" height=".542" x="3.006" y="8.128" ry=".271"/></g></svg>